<?xml version="1.0" encoding="utf-8"?>
<!-- Generator: Adobe Illustrator 25.4.1, SVG Export Plug-In . SVG Version: 6.00 Build 0)  -->
<svg version="1.1" id="Layer_1" xmlns="http://www.w3.org/2000/svg" xmlns:xlink="http://www.w3.org/1999/xlink" x="0px" y="0px"
	 viewBox="0 0 193.2 85" style="enable-background:new 0 0 193.2 85;" xml:space="preserve">
<style type="text/css">
	.st0{fill-rule:evenodd;clip-rule:evenodd;fill:#6D6F71;}
	.st1{fill-rule:evenodd;clip-rule:evenodd;fill:#919396;}
	.st2{fill-rule:evenodd;clip-rule:evenodd;fill:#DBDBDC;}
	.st3{fill-rule:evenodd;clip-rule:evenodd;fill:#EA2227;}
	.st4{fill-rule:evenodd;clip-rule:evenodd;fill:#801417;}
	.st5{fill-rule:evenodd;clip-rule:evenodd;fill:#A41E22;}
	.st6{fill-rule:evenodd;clip-rule:evenodd;fill:#FFFFFF;}
</style>
<g>
	<polygon class="st0" points="34.9,49.5 50.1,40.6 65.4,49.5 50.1,58.2 	"/>
	<polygon class="st1" points="34.9,31.9 50.1,23 50.1,40.6 34.9,49.5 	"/>
	<polygon class="st2" points="50.1,23.1 65.4,31.9 65.4,49.5 50.1,40.7 	"/>
	<polygon class="st0" points="34.9,70.9 50.1,62.1 65.4,70.9 50.1,79.7 	"/>
	<polygon class="st1" points="34.9,53.3 50.1,44.5 50.1,62.1 34.9,70.9 	"/>
	<polygon class="st2" points="50.1,44.5 65.4,53.3 65.4,70.9 50.1,62.1 	"/>
	<polygon class="st0" points="16.3,38.6 31.5,29.7 46.8,38.6 31.5,47.3 	"/>
	<polygon class="st1" points="16.3,20.9 31.5,12.1 31.5,29.7 16.3,38.6 	"/>
	<polygon class="st2" points="31.6,12.1 46.8,20.9 46.8,38.6 31.6,29.7 	"/>
	<polygon class="st0" points="16.3,60.2 31.5,51.4 46.8,60.2 31.5,69 	"/>
	<polygon class="st1" points="16.3,42.6 31.5,33.8 31.5,51.4 16.3,60.2 	"/>
	<polygon class="st2" points="31.5,33.8 46.8,42.6 46.8,60.2 31.5,51.4 	"/>
	<polygon class="st0" points="53.4,38.6 68.7,29.7 83.9,38.6 68.7,47.3 	"/>
	<polygon class="st1" points="53.4,20.9 68.7,12.1 68.7,29.7 53.4,38.6 	"/>
	<polygon class="st2" points="68.7,12.1 83.9,20.9 83.9,38.6 68.7,29.7 	"/>
	<polygon class="st0" points="53.4,60.2 68.7,51.3 83.9,60.2 68.7,68.9 	"/>
	<polygon class="st1" points="53.4,42.6 68.7,33.8 68.7,51.4 53.4,60.2 	"/>
	<polygon class="st2" points="68.7,33.8 83.9,42.6 83.9,60.2 68.7,51.4 	"/>
	<polygon class="st3" points="50.1,1.4 65.4,10.2 65.4,14.1 50.1,5.2 	"/>
	<polygon class="st4" points="34.9,14.1 50.1,5.2 65.4,14.1 50.1,22.8 	"/>
	<polygon class="st5" points="34.9,10.3 50.1,1.5 50.1,5.2 34.9,14.1 	"/>
	<polygon class="st3" points="50.1,1.4 65.4,10.2 65.4,14.1 50.1,5.2 	"/>
	<polygon class="st4" points="34.9,14.1 50.1,5.2 65.4,14.1 50.1,22.8 	"/>
	<polygon class="st5" points="34.9,17.2 50.1,8.4 50.1,12.2 34.9,21 	"/>
	<polygon class="st3" points="50.1,8.4 65.4,17.2 65.4,21 50.1,12.2 	"/>
	<polygon class="st4" points="34.9,21 50.1,12.2 65.4,21 50.1,29.8 	"/>
	<polygon class="st5" points="34.9,24.1 50.1,15.3 50.1,19.1 34.9,27.9 	"/>
	<polygon class="st3" points="50.1,15.3 65.4,24.1 65.4,27.9 50.1,19.1 	"/>
	<polygon class="st4" points="34.9,27.9 50.1,19.1 65.4,27.9 50.1,36.7 	"/>
	<path class="st6" d="M112.7,43.2l0.6-2.6l2.6-11.9h9.3v23h-6.4V40.5l0-3.9l-3.4,15.3h-5.2l-3.5-15.3v15.3h-6.3v-23h9.3l2.6,11.9
		L112.7,43.2z M127.5,51.8v-23h15.9c1.7,0,3.1,0.6,4,1.8c0.9,1.1,1.3,2.6,1.3,4.5v10.4c0,2-0.5,3.5-1.3,4.7
		c-0.9,1.1-2.3,1.7-4.1,1.7H127.5z M134.2,45.4h7.6V35h-7.6V45.4z M150.9,51.8v-6.5h13.9V43h-7.4c-2.6,0-4.3-0.3-5.1-1
		c-0.8-0.6-1.2-1.7-1.2-3.2v-5.5c0-1.4,0.4-2.5,1.2-3.2c0.5-0.4,1.2-0.8,2-1c0.8-0.2,1.9-0.3,3.1-0.3h12.6V35h-12.4v2.5h8.9
		c1.5,0,2.7,0.4,3.4,1.1c0.9,0.7,1.3,1.9,1.3,3.5v5.6c0,1.4-0.5,2.5-1.4,3.2c-0.9,0.7-2,1-3.3,1H150.9z"/>
</g>
</svg>
